<?xml version="1.0" encoding="UTF-8" standalone="no"?>
<!DOCTYPE svg PUBLIC "-//W3C//DTD SVG 1.1//EN"
 "http://www.w3.org/Graphics/SVG/1.1/DTD/svg11.dtd">
<!-- Generated by graphviz version 12.2.1 (20241206.2353)
 -->
<!-- Title: Tree Pages: 1 -->
<svg width="330pt" height="314pt"
 viewBox="0.00 0.00 329.50 314.00" xmlns="http://www.w3.org/2000/svg" xmlns:xlink="http://www.w3.org/1999/xlink">
<g id="graph0" class="graph" transform="scale(1 1) rotate(0) translate(4 310)">
<title>Tree</title>
<polygon fill="white" stroke="none" points="-4,4 -4,-310 325.5,-310 325.5,4 -4,4"/>
<!-- 0 -->
<g id="node1" class="node">
<title>0</title>
<path fill="none" stroke="black" d="M181,-306C181,-306 73.5,-306 73.5,-306 67.5,-306 61.5,-300 61.5,-294 61.5,-294 61.5,-235 61.5,-235 61.5,-229 67.5,-223 73.5,-223 73.5,-223 181,-223 181,-223 187,-223 193,-229 193,-235 193,-235 193,-294 193,-294 193,-300 187,-306 181,-306"/>
<text text-anchor="middle" x="127.25" y="-288.7" font-family="Helvetica,sans-Serif" font-size="14.00">x1 &lt;= 2.45</text>
<text text-anchor="middle" x="127.25" y="-273.7" font-family="Helvetica,sans-Serif" font-size="14.00">gini = 0.667</text>
<text text-anchor="middle" x="127.25" y="-258.7" font-family="Helvetica,sans-Serif" font-size="14.00">samples = 150</text>
<text text-anchor="middle" x="127.25" y="-243.7" font-family="Helvetica,sans-Serif" font-size="14.00">value = [50, 50, 50]</text>
<text text-anchor="middle" x="127.25" y="-228.7" font-family="Helvetica,sans-Serif" font-size="14.00">class = A</text>
</g>
<!-- 1 -->
<g id="node2" class="node">
<title>1</title>
<path fill="none" stroke="black" d="M104.5,-179.5C104.5,-179.5 12,-179.5 12,-179.5 6,-179.5 0,-173.5 0,-167.5 0,-167.5 0,-123.5 0,-123.5 0,-117.5 6,-111.5 12,-111.5 12,-111.5 104.5,-111.5 104.5,-111.5 110.5,-111.5 116.5,-117.5 116.5,-123.5 116.5,-123.5 116.5,-167.5 116.5,-167.5 116.5,-173.5 110.5,-179.5 104.5,-179.5"/>
<text text-anchor="middle" x="58.25" y="-162.2" font-family="Helvetica,sans-Serif" font-size="14.00">gini = 0.0</text>
<text text-anchor="middle" x="58.25" y="-147.2" font-family="Helvetica,sans-Serif" font-size="14.00">samples = 50</text>
<text text-anchor="middle" x="58.25" y="-132.2" font-family="Helvetica,sans-Serif" font-size="14.00">value = [50, 0, 0]</text>
<text text-anchor="middle" x="58.25" y="-117.2" font-family="Helvetica,sans-Serif" font-size="14.00">class = A</text>
</g>
<!-- 0&#45;&gt;1 -->
<g id="edge1" class="edge">
<title>0&#45;&gt;1</title>
<path fill="none" stroke="black" d="M103.12,-222.58C96.81,-211.88 89.99,-200.32 83.62,-189.52"/>
<polygon fill="black" stroke="black" points="86.79,-188 78.69,-181.16 80.76,-191.56 86.79,-188"/>
<text text-anchor="middle" x="71.68" y="-198.27" font-family="Helvetica,sans-Serif" font-size="14.00">True</text>
</g>
<!-- 2 -->
<g id="node3" class="node">
<title>2</title>
<path fill="none" stroke="black" d="M246.25,-187C246.25,-187 146.25,-187 146.25,-187 140.25,-187 134.25,-181 134.25,-175 134.25,-175 134.25,-116 134.25,-116 134.25,-110 140.25,-104 146.25,-104 146.25,-104 246.25,-104 246.25,-104 252.25,-104 258.25,-110 258.25,-116 258.25,-116 258.25,-175 258.25,-175 258.25,-181 252.25,-187 246.25,-187"/>
<text text-anchor="middle" x="196.25" y="-169.7" font-family="Helvetica,sans-Serif" font-size="14.00">x2 &lt;= 1.75</text>
<text text-anchor="middle" x="196.25" y="-154.7" font-family="Helvetica,sans-Serif" font-size="14.00">gini = 0.5</text>
<text text-anchor="middle" x="196.25" y="-139.7" font-family="Helvetica,sans-Serif" font-size="14.00">samples = 100</text>
<text text-anchor="middle" x="196.25" y="-124.7" font-family="Helvetica,sans-Serif" font-size="14.00">value = [0, 50, 50]</text>
<text text-anchor="middle" x="196.25" y="-109.7" font-family="Helvetica,sans-Serif" font-size="14.00">class = B</text>
</g>
<!-- 0&#45;&gt;2 -->
<g id="edge2" class="edge">
<title>0&#45;&gt;2</title>
<path fill="none" stroke="black" d="M151.38,-222.58C156.24,-214.34 161.41,-205.58 166.43,-197.06"/>
<polygon fill="black" stroke="black" points="169.41,-198.9 171.48,-188.5 163.38,-195.34 169.41,-198.9"/>
<text text-anchor="middle" x="178.49" y="-205.61" font-family="Helvetica,sans-Serif" font-size="14.00">False</text>
</g>
<!-- 3 -->
<g id="node4" class="node">
<title>3</title>
<path fill="none" stroke="black" d="M174.5,-68C174.5,-68 82,-68 82,-68 76,-68 70,-62 70,-56 70,-56 70,-12 70,-12 70,-6 76,0 82,0 82,0 174.5,0 174.5,0 180.5,0 186.5,-6 186.5,-12 186.5,-12 186.5,-56 186.5,-56 186.5,-62 180.5,-68 174.5,-68"/>
<text text-anchor="middle" x="128.25" y="-50.7" font-family="Helvetica,sans-Serif" font-size="14.00">gini = 0.168</text>
<text text-anchor="middle" x="128.25" y="-35.7" font-family="Helvetica,sans-Serif" font-size="14.00">samples = 54</text>
<text text-anchor="middle" x="128.25" y="-20.7" font-family="Helvetica,sans-Serif" font-size="14.00">value = [0, 49, 5]</text>
<text text-anchor="middle" x="128.25" y="-5.7" font-family="Helvetica,sans-Serif" font-size="14.00">class = B</text>
</g>
<!-- 2&#45;&gt;3 -->
<g id="edge3" class="edge">
<title>2&#45;&gt;3</title>
<path fill="none" stroke="black" d="M170.93,-103.73C165.72,-95.34 160.22,-86.47 154.96,-78.01"/>
<polygon fill="black" stroke="black" points="157.98,-76.23 149.73,-69.59 152.03,-79.93 157.98,-76.23"/>
</g>
<!-- 4 -->
<g id="node5" class="node">
<title>4</title>
<path fill="none" stroke="black" d="M309.5,-68C309.5,-68 217,-68 217,-68 211,-68 205,-62 205,-56 205,-56 205,-12 205,-12 205,-6 211,0 217,0 217,0 309.5,0 309.5,0 315.5,0 321.5,-6 321.5,-12 321.5,-12 321.5,-56 321.5,-56 321.5,-62 315.5,-68 309.5,-68"/>
<text text-anchor="middle" x="263.25" y="-50.7" font-family="Helvetica,sans-Serif" font-size="14.00">gini = 0.043</text>
<text text-anchor="middle" x="263.25" y="-35.7" font-family="Helvetica,sans-Serif" font-size="14.00">samples = 46</text>
<text text-anchor="middle" x="263.25" y="-20.7" font-family="Helvetica,sans-Serif" font-size="14.00">value = [0, 1, 45]</text>
<text text-anchor="middle" x="263.25" y="-5.7" font-family="Helvetica,sans-Serif" font-size="14.00">class = C</text>
</g>
<!-- 2&#45;&gt;4 -->
<g id="edge4" class="edge">
<title>2&#45;&gt;4</title>
<path fill="none" stroke="black" d="M221.2,-103.73C226.33,-95.34 231.75,-86.47 236.94,-78.01"/>
<polygon fill="black" stroke="black" points="239.85,-79.95 242.08,-69.59 233.88,-76.29 239.85,-79.95"/>
</g>
</g>
</svg>
