<?xml version="1.0" encoding="UTF-8" standalone="no"?>
<!DOCTYPE svg PUBLIC "-//W3C//DTD SVG 1.1//EN"
 "http://www.w3.org/Graphics/SVG/1.1/DTD/svg11.dtd">
<!-- Generated by graphviz version 2.50.0 (20211204.2007)
 -->
<!-- Title: Tree Pages: 1 -->
<svg width="331pt" height="314pt"
 viewBox="0.00 0.00 331.00 314.00" xmlns="http://www.w3.org/2000/svg" xmlns:xlink="http://www.w3.org/1999/xlink">
<g id="graph0" class="graph" transform="scale(1 1) rotate(0) translate(4 310)">
<title>Tree</title>
<polygon fill="white" stroke="transparent" points="-4,4 -4,-310 327,-310 327,4 -4,4"/>
<!-- 0 -->
<g id="node1" class="node">
<title>0</title>
<path fill="none" stroke="black" d="M181.5,-306C181.5,-306 73.5,-306 73.5,-306 67.5,-306 61.5,-300 61.5,-294 61.5,-294 61.5,-235 61.5,-235 61.5,-229 67.5,-223 73.5,-223 73.5,-223 181.5,-223 181.5,-223 187.5,-223 193.5,-229 193.5,-235 193.5,-235 193.5,-294 193.5,-294 193.5,-300 187.5,-306 181.5,-306"/>
<text text-anchor="middle" x="127.5" y="-290.8" font-family="Helvetica,sans-Serif" font-size="14.00">x1 &lt;= 2.45</text>
<text text-anchor="middle" x="127.5" y="-275.8" font-family="Helvetica,sans-Serif" font-size="14.00">gini = 0.667</text>
<text text-anchor="middle" x="127.5" y="-260.8" font-family="Helvetica,sans-Serif" font-size="14.00">samples = 150</text>
<text text-anchor="middle" x="127.5" y="-245.8" font-family="Helvetica,sans-Serif" font-size="14.00">value = [50, 50, 50]</text>
<text text-anchor="middle" x="127.5" y="-230.8" font-family="Helvetica,sans-Serif" font-size="14.00">class = A</text>
</g>
<!-- 1 -->
<g id="node2" class="node">
<title>1</title>
<path fill="none" stroke="black" d="M105,-179.5C105,-179.5 12,-179.5 12,-179.5 6,-179.5 0,-173.5 0,-167.5 0,-167.5 0,-123.5 0,-123.5 0,-117.5 6,-111.5 12,-111.5 12,-111.5 105,-111.5 105,-111.5 111,-111.5 117,-117.5 117,-123.5 117,-123.5 117,-167.5 117,-167.5 117,-173.5 111,-179.5 105,-179.5"/>
<text text-anchor="middle" x="58.5" y="-164.3" font-family="Helvetica,sans-Serif" font-size="14.00">gini = 0.0</text>
<text text-anchor="middle" x="58.5" y="-149.3" font-family="Helvetica,sans-Serif" font-size="14.00">samples = 50</text>
<text text-anchor="middle" x="58.5" y="-134.3" font-family="Helvetica,sans-Serif" font-size="14.00">value = [50, 0, 0]</text>
<text text-anchor="middle" x="58.5" y="-119.3" font-family="Helvetica,sans-Serif" font-size="14.00">class = A</text>
</g>
<!-- 0&#45;&gt;1 -->
<g id="edge1" class="edge">
<title>0&#45;&gt;1</title>
<path fill="none" stroke="black" d="M103.56,-222.91C96.99,-211.76 89.85,-199.66 83.23,-188.44"/>
<polygon fill="black" stroke="black" points="86.15,-186.5 78.06,-179.67 80.13,-190.06 86.15,-186.5"/>
<text text-anchor="middle" x="71.81" y="-200.17" font-family="Helvetica,sans-Serif" font-size="14.00">True</text>
</g>
<!-- 2 -->
<g id="node3" class="node">
<title>2</title>
<path fill="none" stroke="black" d="M248,-187C248,-187 147,-187 147,-187 141,-187 135,-181 135,-175 135,-175 135,-116 135,-116 135,-110 141,-104 147,-104 147,-104 248,-104 248,-104 254,-104 260,-110 260,-116 260,-116 260,-175 260,-175 260,-181 254,-187 248,-187"/>
<text text-anchor="middle" x="197.5" y="-171.8" font-family="Helvetica,sans-Serif" font-size="14.00">x2 &lt;= 1.75</text>
<text text-anchor="middle" x="197.5" y="-156.8" font-family="Helvetica,sans-Serif" font-size="14.00">gini = 0.5</text>
<text text-anchor="middle" x="197.5" y="-141.8" font-family="Helvetica,sans-Serif" font-size="14.00">samples = 100</text>
<text text-anchor="middle" x="197.5" y="-126.8" font-family="Helvetica,sans-Serif" font-size="14.00">value = [0, 50, 50]</text>
<text text-anchor="middle" x="197.5" y="-111.8" font-family="Helvetica,sans-Serif" font-size="14.00">class = B</text>
</g>
<!-- 0&#45;&gt;2 -->
<g id="edge2" class="edge">
<title>0&#45;&gt;2</title>
<path fill="none" stroke="black" d="M151.79,-222.91C157.05,-214.1 162.68,-204.7 168.12,-195.61"/>
<polygon fill="black" stroke="black" points="171.13,-197.4 173.26,-187.02 165.12,-193.81 171.13,-197.4"/>
<text text-anchor="middle" x="179.35" y="-207.57" font-family="Helvetica,sans-Serif" font-size="14.00">False</text>
</g>
<!-- 3 -->
<g id="node4" class="node">
<title>3</title>
<path fill="none" stroke="black" d="M176,-68C176,-68 83,-68 83,-68 77,-68 71,-62 71,-56 71,-56 71,-12 71,-12 71,-6 77,0 83,0 83,0 176,0 176,0 182,0 188,-6 188,-12 188,-12 188,-56 188,-56 188,-62 182,-68 176,-68"/>
<text text-anchor="middle" x="129.5" y="-52.8" font-family="Helvetica,sans-Serif" font-size="14.00">gini = 0.168</text>
<text text-anchor="middle" x="129.5" y="-37.8" font-family="Helvetica,sans-Serif" font-size="14.00">samples = 54</text>
<text text-anchor="middle" x="129.5" y="-22.8" font-family="Helvetica,sans-Serif" font-size="14.00">value = [0, 49, 5]</text>
<text text-anchor="middle" x="129.5" y="-7.8" font-family="Helvetica,sans-Serif" font-size="14.00">class = B</text>
</g>
<!-- 2&#45;&gt;3 -->
<g id="edge3" class="edge">
<title>2&#45;&gt;3</title>
<path fill="none" stroke="black" d="M172.18,-103.73C166.74,-94.97 160.99,-85.7 155.52,-76.91"/>
<polygon fill="black" stroke="black" points="158.43,-74.95 150.18,-68.3 152.48,-78.64 158.43,-74.95"/>
</g>
<!-- 4 -->
<g id="node5" class="node">
<title>4</title>
<path fill="none" stroke="black" d="M311,-68C311,-68 218,-68 218,-68 212,-68 206,-62 206,-56 206,-56 206,-12 206,-12 206,-6 212,0 218,0 218,0 311,0 311,0 317,0 323,-6 323,-12 323,-12 323,-56 323,-56 323,-62 317,-68 311,-68"/>
<text text-anchor="middle" x="264.5" y="-52.8" font-family="Helvetica,sans-Serif" font-size="14.00">gini = 0.043</text>
<text text-anchor="middle" x="264.5" y="-37.8" font-family="Helvetica,sans-Serif" font-size="14.00">samples = 46</text>
<text text-anchor="middle" x="264.5" y="-22.8" font-family="Helvetica,sans-Serif" font-size="14.00">value = [0, 1, 45]</text>
<text text-anchor="middle" x="264.5" y="-7.8" font-family="Helvetica,sans-Serif" font-size="14.00">class = C</text>
</g>
<!-- 2&#45;&gt;4 -->
<g id="edge4" class="edge">
<title>2&#45;&gt;4</title>
<path fill="none" stroke="black" d="M222.45,-103.73C227.81,-94.97 233.48,-85.7 238.86,-76.91"/>
<polygon fill="black" stroke="black" points="241.89,-78.66 244.12,-68.3 235.92,-75 241.89,-78.66"/>
</g>
</g>
</svg>
